# xmcd
#
# Track frame offsets: 
#        150
#        15018
#        35950
#        58733
#        70803
#        85050
#        98335
#        109020
#        121980
#        134315
#        149023
#        162675
#        177253
#        191113
#        203850
#        235030
#
# Disc length: 3291 seconds
#
# Revision: 0
# Processed by: cddbd v1.4PL0 Copyright (c) Steve Scherf et al.
# Submitted via: ExactAudioCopy v0.90b4
#
DISCID=de0cd910
DTITLE=Charlie Parker - Bird
DYEAR=2000
DGENRE=Blues
TTITLE0=Cool Blues
TTITLE1=Ornithology
TTITLE2='Round Midnight
TTITLE3=Bird's Nest
TTITLE4=Bird Of Paradise
TTITLE5=Cheryl
TTITLE6=Donna Lee
TTITLE7=Ko Ko
TTITLE8=Chasin' The Bird
TTITLE9=Lover Man
TTITLE10=Moose The Mouch
TTITLE11=My Old Flame
TTITLE12=Red Cross
TTITLE13=Stupendous
TTITLE14=Street Beat
TTITLE15=Yardbird Suite
EXTD=
EXTT0=
EXTT1=
EXTT2=
EXTT3=
EXTT4=
EXTT5=
EXTT6=
EXTT7=
EXTT8=
EXTT9=
EXTT10=
EXTT11=
EXTT12=
EXTT13=
EXTT14=
EXTT15=
PLAYORDER=
